<mxfile host="app.diagrams.net" modified="2024-06-11T05:21:39.515Z" agent="Mozilla/5.0 (X11; Linux x86_64) AppleWebKit/537.36 (KHTML, like Gecko) Chrome/118.0.0.0 Safari/537.36 Edg/118.0.2088.61" version="24.4.10" etag="oD4XB3e7G14MYgoSaoH6" type="github">
  <diagram name="第 1 页" id="FLwqT2IODWgFMGZDdFb9">
    <mxGraphModel>
      <root>
        <mxCell id="0" />
        <mxCell id="1" parent="0" />
      </root>
    </mxGraphModel>
  </diagram>
</mxfile>
